<?xml version="1.0" encoding="UTF-8"?>
<svg width="1200" height="800" viewBox="0 0 1200 800" xmlns="http://www.w3.org/2000/svg" preserveAspectRatio="xMidYMid slice">
  <defs>
    <linearGradient id="g1" x1="0" x2="1" y1="0" y2="1">
      <stop offset="0%" stop-color="#7DD3FC" stop-opacity="1"/>
      <stop offset="50%" stop-color="#C7B2FF" stop-opacity="0.9"/>
      <stop offset="100%" stop-color="#FBCFE8" stop-opacity="0.9"/>
    </linearGradient>
    <filter id="blur" x="-20%" y="-20%" width="140%" height="140%">
      <feGaussianBlur stdDeviation="40"/>
    </filter>
  </defs>

  <rect width="1200" height="800" fill="url(#g1)" />

  <!-- soft organic shapes -->
  <g fill-opacity="0.6" filter="url(#blur)">
    <path d="M200 200 C 120 300, 120 500, 300 560 C 520 640, 620 540, 760 420 C 920 300, 820 140, 600 160 C 420 180, 340 120, 200 200 Z" fill="#FFFFFF"/>
    <path d="M900 600 C 820 680, 700 720, 560 700 C 420 680, 360 580, 260 520 C 160 460, 140 360, 260 300 C 380 240, 520 260, 680 300 C 820 340, 980 480, 900 600 Z" fill="#FFFFFF"/>
  </g>

  <!-- simple icon: head + heart -->
  <g transform="translate(80,80) scale(1.6)" fill="#0F172A" opacity="0.12">
    <path d="M264 48c-12-30-42-48-76-48s-64 18-76 48C92 64 72 96 72 132c0 70 108 152 108 152s108-82 108-152c0-36-20-68-32-84z"/>
    <path d="M192 136c10-18 36-18 46 0 8 14-10 30-23 40-13-10-31-26-23-40z" fill="#FFB6C1"/>
  </g>

  <!-- gentle grain overlay -->
  <rect width="1200" height="800" fill="rgba(255,255,255,0.02)"/>
</svg>
